<?xml version="1.0" encoding="UTF-8" standalone="no"?>
<svg
   width="335"
   height="63"
   fill="none"
   version="1.1"
   id="svg8"
   sodipodi:docname="logo_oracleAlura-es_branca.1647533644.svg"
   inkscape:version="1.1 (c68e22c387, 2021-05-23)"
   xmlns:inkscape="http://www.inkscape.org/namespaces/inkscape"
   xmlns:sodipodi="http://sodipodi.sourceforge.net/DTD/sodipodi-0.dtd"
   xmlns="http://www.w3.org/2000/svg"
   xmlns:svg="http://www.w3.org/2000/svg">
  <defs
     id="defs12" />
  <sodipodi:namedview
     id="namedview10"
     pagecolor="#ffffff"
     bordercolor="#666666"
     borderopacity="1.0"
     inkscape:pageshadow="2"
     inkscape:pageopacity="0.0"
     inkscape:pagecheckerboard="0"
     showgrid="false"
     inkscape:zoom="2.412766"
     inkscape:cx="900.83332"
     inkscape:cy="21.344797"
     inkscape:window-width="1920"
     inkscape:window-height="1017"
     inkscape:window-x="-8"
     inkscape:window-y="-8"
     inkscape:window-maximized="1"
     inkscape:current-layer="g1090"
     width="335px" />
  <g
     id="g1090">
    <path
       fill-rule="evenodd"
       clip-rule="evenodd"
       d="m 86.502539,42.814027 h 12.57663 l -6.642793,-10.689364 -12.196078,19.32373 -5.55892,0.0057 14.845869,-23.208179 a 3.4672777,3.4672777 0 0 1 2.900675,-1.510947 c 1.167033,0 2.238225,0.549692 2.871078,1.470072 l 14.89801,23.249083 -5.56172,-0.0057 -2.60751,-4.318593 H 89.282 L 86.502539,42.815466 Z M 144.20313,47.13403 V 26.978716 h -4.71606 v 22.127151 c 0,0.611707 0.24945,1.198044 0.68641,1.634977 0.46229,0.455257 1.07118,0.70896 1.728,0.70896 h 21.49149 l 2.77241,-4.312957 H 144.20172 Z M 66.23024,43.525806 a 8.2820018,8.2820018 0 0 0 8.28482,-8.273547 8.2820018,8.2820018 0 0 0 -8.28482,-8.274953 H 45.602758 v 24.469678 h 4.711831 V 31.29167 h 15.588657 a 3.9619996,3.9619996 0 1 1 0,7.923999 l -13.281367,-0.0041 14.066437,12.23836 h 6.847167 l -9.465949,-7.926817 2.159298,0.0041 z m -49.632812,7.922587 c -6.76542,0 -12.2552771,-5.474351 -12.2552771,-12.234134 0,-6.758372 5.4884457,-12.236953 12.2552771,-12.236953 h 14.245436 c 6.766831,0 12.253869,5.478581 12.253869,12.236953 0,6.761192 -5.487038,12.239774 -12.253869,12.239774 l -14.245436,-0.007 z m 13.929718,-4.312955 a 7.9254078,7.9254078 0 0 0 7.932455,-7.921179 7.9268172,7.9268172 0 0 0 -7.932455,-7.922589 l -13.612589,-0.0013 a 7.9296363,7.9296363 0 0 0 -7.9352735,7.923996 c 0,4.37779 3.5518445,7.921181 7.9352735,7.921181 z m 89.500874,4.312955 c -6.76541,0 -12.25668,-5.474351 -12.25668,-12.234134 0,-6.758372 5.49127,-12.236953 12.25668,-12.236953 h 16.92764 l -2.7724,4.312956 h -13.8367 a 7.9310456,7.9310456 0 0 0 -7.93809,7.923997 7.9282267,7.9282267 0 0 0 7.93809,7.921179 h 16.99247 l -2.76817,4.312955 z m 57.65546,-4.312955 a 7.9310456,7.9310456 0 0 1 -7.6322,-5.756244 h 20.14684 l 2.77384,-4.312956 -22.92634,-0.0028 a 7.9352739,7.9352739 0 0 1 7.63786,-5.773157 h 13.82684 l 2.77805,-4.312958 h -16.92904 c -6.764,0 -12.25388,5.478583 -12.25388,12.236954 0,6.759782 5.48988,12.234135 12.25388,12.234135 h 14.54283 l 2.77099,-4.312955 z"
       fill="#fff"
       id="path2"
       style="fill:#000000;stroke-width:1.40945" />
    <path
       stroke="#ffffff"
       stroke-width="2.81893"
       d="m 220.79896,30.443176 v 17.30256 m -8.82465,-8.824644 h 17.30398"
       id="path4"
       style="fill:#000000;stroke:#000000;stroke-opacity:1" />
    <path
       d="m 270.12875,2.017134 h 4.02399 c 0.21142,0 0.38056,0.1691354 0.38056,0.3805548 V 42.72805 c 0,0.211419 -0.16914,0.380554 -0.38056,0.380554 h -4.02399 c -0.21143,0 -0.38057,-0.169135 -0.38057,-0.380554 V 2.3976888 c 0,-0.2114194 0.16914,-0.3805548 0.38057,-0.3805548 z m 27.70015,33.178748 v 1.014813 c 0,0.465123 -0.0846,1.058505 -0.2537,1.821025 -0.12827,0.718825 -0.50881,1.52222 -1.18676,2.242456 -0.63568,0.718825 -1.56733,1.395367 -2.87954,1.98875 -1.31362,0.507407 -3.05007,0.803395 -5.33762,0.803395 -2.28616,0 -4.02261,-0.295988 -5.33625,-0.803395 -1.31219,-0.507407 -2.20157,-1.183946 -2.87953,-1.98875 -0.63565,-0.718827 -1.0585,-1.522221 -1.18675,-2.284739 -0.1268,-0.761109 -0.25371,-1.354494 -0.25371,-1.777333 V 13.232227 c 0,-0.211419 0.16914,-0.380555 0.38196,-0.380555 h 4.02262 a 0.38055487,0.38055487 0 0 1 0.38195,0.380555 V 34.73076 c 0,0.718826 0.0846,1.226232 0.21143,1.606787 0.0848,0.422838 0.29598,0.804803 0.59338,1.143074 0.29599,0.380554 0.76252,0.676541 1.39677,0.930245 0.59338,0.255112 1.44046,0.381966 2.49897,0.381966 1.10221,0 1.99158,-0.126854 2.62585,-0.380558 0.63566,-0.253702 1.14448,-0.507405 1.44048,-0.887961 0.33824,-0.338271 0.5511,-0.720235 0.67794,-1.143072 0.0846,-0.422841 0.2537,-0.718827 0.2537,-1.735049 V 13.232227 c 0,-0.211419 0.16913,-0.380555 0.38194,-0.380555 h 4.02262 a 0.38055487,0.38055487 0 0 1 0.38197,0.380555 z m 13.72254,-22.301926 h 2.71039 c 0.2537,0 0.42425,0.253702 0.33827,0.465122 l -0.93166,3.512381 c -0.0423,0.169135 -0.21142,0.295988 -0.33827,0.295988 h -1.90559 c -1.01622,0 -1.82103,0.126851 -2.45669,0.42284 -0.59339,0.295985 -1.14307,0.54969 -1.44046,0.930245 -0.296,0.381963 -0.50742,0.720234 -0.63568,1.144483 -0.0847,0.422837 -0.12681,0.761111 -0.12681,1.141664 v 21.965064 c 0,0.211419 -0.16912,0.380556 -0.38054,0.380556 h -4.0663 c -0.21142,0 -0.38054,-0.169137 -0.38054,-0.380556 V 19.790457 c 0,-0.422838 0.0847,-1.014814 0.25371,-1.777333 0.1269,-0.761108 0.50879,-1.523629 1.18534,-2.286148 0.63567,-0.718826 1.56733,-1.395368 2.88094,-1.987342 1.26993,-0.593384 3.04867,-0.847087 5.29396,-0.847087 z m -55.39894,0 c 3.2615,0 5.71819,0.634258 7.24183,1.94506 1.52503,1.312208 2.28755,2.920406 2.28755,4.868282 v 16.504806 c 0,0.676544 -0.1268,1.395368 -0.38056,2.198762 a 5.1431288,5.1431288 0 0 1 -1.39819,2.201581 c -0.72022,0.676542 -1.69416,1.226233 -2.9218,1.692765 -1.22906,0.465121 -2.83866,0.67654 -4.82883,0.67654 -1.99016,0 -3.59976,-0.253702 -4.82882,-0.67654 -1.22763,-0.422839 -2.20157,-1.014814 -2.92182,-1.691356 -0.72023,-0.677952 -1.18675,-1.398187 -1.39818,-2.201582 -0.2537,-0.761109 -0.42283,-1.523626 -0.42283,-2.20017 v -2.624418 c 0,-1.395368 0.38055,-2.708987 1.10078,-3.892936 0.76253,-1.143075 1.77875,-1.990161 3.09237,-2.455284 0.67654,-0.253703 1.39677,-0.465123 2.28614,-0.76111 0.84709,-0.295986 1.69418,-0.549689 2.49899,-0.88796 0.8048,-0.297398 1.48274,-0.508817 2.11841,-0.720235 0.59198,-0.253706 0.97395,-0.338271 1.14308,-0.42284 0.12678,-0.08457 0.33827,-0.169135 0.55111,-0.295987 0.25369,-0.12685 0.46511,-0.338271 0.72022,-0.5511 0.25371,-0.295987 0.42286,-0.549691 0.54971,-0.887963 0.16913,-0.338269 0.25511,-0.720234 0.25511,-1.185356 v -1.0571 c 0,-0.381963 -0.086,-0.720233 -0.25511,-1.144481 -0.1268,-0.422839 -0.42285,-0.718825 -0.76253,-1.099381 -0.33828,-0.338272 -0.88937,-0.591973 -1.48135,-0.803394 -0.59339,-0.211418 -1.35591,-0.295986 -2.32984,-0.295986 -1.86331,0 -3.09236,0.380555 -3.81261,1.141664 -0.54967,0.676541 -0.93165,1.479935 -0.97393,2.411591 0,0.21142 -0.16912,0.33827 -0.38054,0.33827 h -3.93946 c -0.21142,0 -0.38055,-0.169135 -0.38055,-0.380554 v -0.972529 c 0,-0.930246 0.16913,-1.821025 0.50741,-2.624421 0.33968,-0.88796 0.93165,-1.606787 1.73645,-2.242455 a 7.9634632,7.9634632 0 0 1 3.0078,-1.439061 c 1.18535,-0.253703 2.62582,-0.465122 4.31999,-0.465122 z m 4.82883,14.854325 c -0.0848,0.380556 -0.2974,0.63426 -0.55111,0.845678 -0.29598,0.21142 -0.55109,0.295988 -0.84707,0.422839 -0.55111,0.21142 -1.18537,0.422839 -1.82104,0.634259 -0.63567,0.253701 -1.27134,0.465123 -1.82103,0.635666 -0.67794,0.253704 -1.3559,0.465122 -1.90699,0.676543 -0.46513,0.21142 -0.88937,0.465123 -1.31221,0.761111 -0.33827,0.297395 -0.63566,0.677952 -0.93165,1.144482 -0.29739,0.507407 -0.42425,1.057096 -0.42425,1.775923 0,1.396779 0.33968,2.455284 1.01763,3.174109 0.67653,0.676543 1.94789,1.058507 3.76889,1.058507 1.86331,0 3.13464,-0.380556 3.85348,-1.09938 0.67795,-0.718827 1.01761,-1.778742 1.01761,-3.089542 z m 65.05515,-14.855734 c 3.2615,0 5.7182,0.634257 7.24182,1.947878 1.52504,1.310799 2.28754,2.918997 2.28754,4.866873 v 16.504806 c 0,0.676544 -0.12691,1.395368 -0.38055,2.198762 a 5.1431288,5.1431288 0 0 1 -1.39817,2.201581 c -0.67797,0.634258 -1.69418,1.226233 -2.92181,1.692765 -1.22906,0.465121 -2.83866,0.67654 -4.82883,0.67654 -1.99017,0 -3.59975,-0.253702 -4.82882,-0.67654 -1.22765,-0.422839 -2.20158,-1.014814 -2.9218,-1.691356 -0.72025,-0.677952 -1.18678,-1.398187 -1.3982,-2.201582 -0.25371,-0.803392 -0.38057,-1.565911 -0.38057,-2.20017 v -2.624418 c 0,-1.395368 0.38057,-2.708987 1.10081,-3.892936 a 5.9465223,5.9465223 0 0 1 3.09236,-2.455284 c 0.67652,-0.253703 1.39676,-0.465123 2.28614,-0.76111 0.84708,-0.295986 1.69418,-0.549689 2.49897,-0.88796 0.8048,-0.297398 1.48275,-0.508817 2.11843,-0.720235 0.59199,-0.253706 0.97394,-0.338271 1.14309,-0.42284 0.12691,-0.08457 0.33827,-0.169135 0.55109,-0.295987 0.2537,-0.12685 0.46512,-0.338271 0.72024,-0.5511 0.2537,-0.295987 0.42282,-0.549691 0.54968,-0.887963 0.16912,-0.338269 0.2537,-0.720234 0.2537,-1.185356 v -1.0571 c 0,-0.381963 -0.0847,-0.720233 -0.2537,-1.144481 -0.12678,-0.422839 -0.42283,-0.718825 -0.76252,-1.099381 -0.38055,-0.338272 -0.88937,-0.591973 -1.48135,-0.803394 -0.59338,-0.211418 -1.35591,-0.295986 -2.32983,-0.295986 -1.86331,0 -3.09238,0.380555 -3.81261,1.141664 -0.54968,0.676541 -0.93166,1.479935 -0.97393,2.411591 0,0.21142 -0.16914,0.33827 -0.38055,0.33827 h -4.06631 c -0.2114,0 -0.38055,-0.169135 -0.38055,-0.380554 v -0.972529 c 0,-0.930246 0.16915,-1.821025 0.50741,-2.624421 0.33967,-0.803394 0.93165,-1.564503 1.73646,-2.200169 a 7.9634632,7.9634632 0 0 1 3.00779,-1.439063 c 1.26991,-0.295987 2.71039,-0.507406 4.40457,-0.507406 z m 4.78512,14.855734 c -0.0847,0.380556 -0.29598,0.63426 -0.54968,0.845678 -0.2974,0.21142 -0.55111,0.295988 -0.84709,0.422839 -0.55111,0.21142 -1.18676,0.422839 -1.82103,0.634259 -0.63568,0.253701 -1.27133,0.465123 -1.82104,0.635666 -0.67794,0.253704 -1.35587,0.465122 -1.90698,0.676543 -0.46513,0.21142 -0.88938,0.465123 -1.31222,0.761111 -0.33969,0.297395 -0.63567,0.677952 -0.93165,1.144482 -0.2974,0.465123 -0.42425,1.057096 -0.42425,1.775923 0,1.396779 0.33969,2.455284 1.01621,3.174109 0.67795,0.676543 1.9493,1.058507 3.77033,1.058507 1.86329,0 3.13464,-0.380556 3.85346,-1.09938 0.67796,-0.718827 1.01765,-1.778742 1.01765,-3.089542 z m -54.59411,21.45343 c 0,-0.211419 0.17054,-0.380555 0.38195,-0.380555 h 2.32985 c 0.21142,0 0.38056,0.169136 0.38056,0.380555 v 10.369417 h 4.61739 c 0.21143,0 0.38056,0.169135 0.38056,0.380554 v 2.115604 c 0,0.211418 -0.16913,0.380555 -0.38056,0.380555 h -7.3278 a 0.38055487,0.38055487 0 0 1 -0.38195,-0.380555 z m 8.85282,12.738722 6.05647,-13.034708 c 0.0423,-0.126854 0.21142,-0.211421 0.33826,-0.211421 h 0.21285 c 0.12678,0 0.2537,0.08457 0.33825,0.211421 l 6.05646,13.034708 c 0.12679,0.253704 -0.0423,0.507408 -0.33826,0.507408 h -2.16071 c -0.33828,0 -0.50741,-0.126854 -0.67795,-0.465125 l -0.67655,-1.52222 h -5.29535 L 288.25724,62.025 a 0.71882587,0.71882587 0 0 1 -0.67795,0.465122 h -2.11841 c -0.38057,-0.04228 -0.50743,-0.295985 -0.38057,-0.549689 z m 7.96206,-4.14664 -1.48276,-3.216391 -1.43906,3.216391 z m 7.66607,-6.094515 h -2.79496 a 0.38055487,0.38055487 0 0 1 -0.38197,-0.380554 v -2.117013 c 0,-0.211419 0.17053,-0.380555 0.38197,-0.380555 h 8.59771 c 0.21142,0 0.38056,0.169136 0.38056,0.380555 v 2.117013 c 0,0.211418 -0.16914,0.380554 -0.38056,0.380554 h -2.75268 v 10.368008 c 0,0.211418 -0.16915,0.380555 -0.38195,0.380555 h -2.32843 a 0.38055487,0.38055487 0 0 1 -0.38197,-0.380555 V 51.700688 h 0.0423 z m 5.71818,10.241155 6.05646,-13.034708 c 0.0423,-0.126854 0.21142,-0.211421 0.33826,-0.211421 h 0.21285 c 0.12679,0 0.25371,0.08457 0.33826,0.211421 l 6.05648,13.034708 c 0.12676,0.253704 -0.0423,0.507408 -0.33829,0.507408 h -2.1607 c -0.33827,0 -0.5074,-0.126854 -0.67795,-0.465125 l -0.67655,-1.52222 H 310.2801 L 309.60355,62.025 a 0.7329205,0.7329205 0 0 1 -0.72023,0.465122 h -2.11843 c -0.29598,-0.04228 -0.46512,-0.295985 -0.33827,-0.549689 z m 7.96205,-4.14664 -1.48274,-3.216391 -1.43907,3.216391 z m 7.96348,-8.845787 c 0,-0.169135 0.21141,-0.295985 0.33826,-0.295985 h 0.29599 c 0.0847,0 0.25512,0.08457 0.33968,0.211419 l 4.48913,8.379255 h 0.0423 l 4.48915,-8.379255 c 0.0423,-0.126851 0.25511,-0.211419 0.33967,-0.211419 h 0.29598 c 0.16915,0 0.33827,0.12685 0.33827,0.295985 l 2.20301,13.03471 c 0.0423,0.253705 -0.12693,0.42284 -0.38057,0.42284 h -2.28757 c -0.16912,0 -0.33967,-0.169135 -0.38194,-0.295987 l -0.88939,-6.009949 h -0.0423 l -3.26008,6.263651 c -0.0437,0.126851 -0.21284,0.21142 -0.33969,0.21142 h -0.33827 c -0.1268,0 -0.25511,-0.08457 -0.33968,-0.21142 l -3.2615,-6.263651 h -0.0423 l -0.84709,6.009949 c 0,0.169135 -0.16912,0.295987 -0.38054,0.295987 h -2.28756 c -0.25371,0 -0.42283,-0.169135 -0.38056,-0.42284 z"
       fill="#fff"
       id="path6"
       style="fill:#000000;stroke-width:1.40945" />
  </g>
</svg>
