<?xml version="1.0" encoding="iso-8859-1"?>
<!-- Generator: Adobe Illustrator 19.0.0, SVG Export Plug-In . SVG Version: 6.00 Build 0)  -->
<svg version="1.1" id="Layer_1" xmlns="http://www.w3.org/2000/svg" xmlns:xlink="http://www.w3.org/1999/xlink" x="0px" y="0px"
	 viewBox="0 0 512 512" style="enable-background:new 0 0 512 512;" xml:space="preserve">
<polygon style="fill:#261D16;" points="503.379,185.147 8.621,185.147 8.621,410.037 255.999,433.026 503.379,410.037 "/>
<rect x="31.115" y="106.243" style="fill:#DEDAD2;" width="114.197" height="56.725"/>
<path style="fill:#BDB5A5;" d="M503.379,95.191c0-6.184-5.06-11.245-11.245-11.245h-313.1v56.222H19.866
	c-6.184,0-11.245,5.06-11.245,11.244v33.734h494.758V95.191z"/>
<path style="fill:#DEDAD2;" d="M503.379,193.768H8.621c-4.761,0-8.621-3.86-8.621-8.621s3.86-8.621,8.621-8.621h494.758
	c4.762,0,8.621,3.86,8.621,8.621S508.141,193.768,503.379,193.768z"/>
<path style="fill:#BDB5A5;" d="M8.621,410.037v22.489c0,6.184,5.06,11.245,11.245,11.245h472.27c6.184,0,11.245-5.06,11.245-11.245
	v-22.489H8.621z"/>
<path style="fill:#DEDAD2;" d="M435.912,267.232h-45.978v60.72h45.978c8.35,0,15.117-6.769,15.117-15.117v-30.485
	C451.029,274.001,444.261,267.232,435.912,267.232z"/>
<circle style="fill:#8B8275;" cx="289.727" cy="297.59" r="112.45"/>
<circle style="fill:#CFE4FF;" cx="289.727" cy="297.59" r="78.714"/>
<path style="fill:#DEDAD2;" d="M450.688,140.338c0,5.704-4.623,10.327-10.327,10.327h-61.782c-5.704,0-10.327-4.623-10.327-10.327
	V78.556c0-5.704,4.623-10.327,10.327-10.327h61.782c5.704,0,10.327,4.623,10.327,10.327V140.338z"/>
<path style="fill:#FFFFFF;" d="M289.733,350.442c-4.762,0-8.621-3.86-8.621-8.621c0-4.761,3.859-8.621,8.621-8.621
	c19.635,0,35.608-15.974,35.608-35.608c0-4.761,3.859-8.621,8.621-8.621c4.762,0,8.621,3.86,8.621,8.621
	C342.582,326.734,318.874,350.442,289.733,350.442z"/>
<g>
</g>
<g>
</g>
<g>
</g>
<g>
</g>
<g>
</g>
<g>
</g>
<g>
</g>
<g>
</g>
<g>
</g>
<g>
</g>
<g>
</g>
<g>
</g>
<g>
</g>
<g>
</g>
<g>
</g>
</svg>
