<?xml version="1.0" encoding="iso-8859-1"?>
<!-- Generator: Adobe Illustrator 19.0.0, SVG Export Plug-In . SVG Version: 6.00 Build 0)  -->
<svg version="1.1" id="Layer_1" xmlns="http://www.w3.org/2000/svg" xmlns:xlink="http://www.w3.org/1999/xlink" x="0px" y="0px"
	 viewBox="0 0 512 512" style="enable-background:new 0 0 512 512;" xml:space="preserve">
<path style="fill:#F7DC4D;" d="M96.348,86.652c-13.588-22.091-12.9-48.932-0.523-69.787c0.575-0.97,0.503-2.193-0.182-3.09
	c-0.685-0.897-1.848-1.285-2.934-0.983c-5.927,1.651-11.727,4.141-17.229,7.526c-31.723,19.511-41.622,61.046-22.11,92.769
	s61.047,41.622,92.771,22.111c5.503-3.384,10.34-7.437,14.486-11.983c0.76-0.834,0.937-2.046,0.447-3.062
	c-0.49-1.017-1.55-1.632-2.675-1.555C134.2,120.237,109.935,108.743,96.348,86.652z"/>
<g>
	<path style="fill:#EDA637;" d="M211.859,70.516l-5.804-4.214c-0.942-0.684-2.061-1.083-3.223-1.151l-7.16-0.417
		c-4.805-0.28-7.4-5.761-4.573-9.655l4.214-5.804c0.684-0.942,1.083-2.061,1.151-3.223l0.417-7.16c0.28-4.805,5.761-7.4,9.655-4.573
		l5.804,4.214c0.942,0.684,2.061,1.083,3.223,1.151l7.16,0.417c4.805,0.28,7.4,5.761,4.573,9.655l-4.214,5.804
		c-0.684,0.942-1.083,2.061-1.151,3.223l-0.417,7.16C221.235,70.748,215.753,73.344,211.859,70.516z"/>
	<path style="fill:#EDA637;" d="M276.316,130.878l-0.731-7.135c-0.119-1.159-0.567-2.259-1.292-3.17l-4.465-5.613
		c-2.996-3.766-0.643-9.356,4.144-9.847l7.135-0.731c1.159-0.119,2.259-0.567,3.17-1.292l5.613-4.465
		c3.766-2.996,9.356-0.644,9.847,4.144l0.731,7.135c0.119,1.159,0.567,2.259,1.292,3.17l4.465,5.613
		c2.996,3.766,0.643,9.356-4.144,9.847l-7.135,0.731c-1.159,0.119-2.259,0.567-3.17,1.292l-5.613,4.465
		C282.396,138.018,276.807,135.665,276.316,130.878z"/>
	<path style="fill:#EDA637;" d="M351.528,51.875l-0.731-7.135c-0.119-1.159-0.567-2.259-1.292-3.17l-4.465-5.613
		c-2.996-3.766-0.643-9.356,4.144-9.847l7.135-0.731c1.159-0.119,2.259-0.567,3.17-1.292l5.613-4.465
		c3.766-2.996,9.356-0.644,9.847,4.144l0.731,7.135c0.119,1.159,0.567,2.259,1.292,3.17l4.465,5.613
		c2.996,3.766,0.643,9.356-4.144,9.847l-7.135,0.731c-1.159,0.119-2.259,0.567-3.17,1.292l-5.613,4.465
		C357.608,59.015,352.018,56.663,351.528,51.875z"/>
</g>
<path style="fill:#C27526;" d="M412.256,499.308h-43.466V371.44h55.013v116.321C423.804,494.139,418.633,499.308,412.256,499.308z"
	/>
<path style="fill:#7E4F1F;" d="M412.256,499.308h-16.865V371.44h28.412v116.321C423.804,494.139,418.633,499.308,412.256,499.308z"
	/>
<g>
	<path style="fill:#6DDE57;" d="M290.143,395.309c-3.541,0-6.792-1.959-8.445-5.091c-1.653-3.131-1.439-6.92,0.558-9.845
		l114.041-167.032l114.041,167.032c1.996,2.924,2.211,6.714,0.558,9.845c-1.653,3.131-4.904,5.091-8.445,5.091H290.143z"/>
	<path style="fill:#6DDE57;" d="M326.308,277.807c-3.541,0-6.792-1.959-8.445-5.091c-1.653-3.131-1.439-6.92,0.558-9.845
		l77.875-114.063l77.877,114.063c1.996,2.924,2.211,6.714,0.558,9.845c-1.653,3.131-4.904,5.091-8.445,5.091H326.308z"/>
	<path style="fill:#6DDE57;" d="M355.865,195.463c-3.541,0-6.792-1.959-8.445-5.091c-1.653-3.131-1.439-6.92,0.558-9.845
		l41.396-60.63c1.562-2.288,4.154-3.656,6.924-3.656c2.77,0,5.362,1.369,6.924,3.656l41.396,60.63
		c1.996,2.924,2.211,6.714,0.558,9.845c-1.653,3.131-4.904,5.091-8.445,5.091H355.865z"/>
</g>
<g>
	<path style="fill:#488E53;" d="M444.616,180.528l-41.396-60.63c-1.562-2.288-4.153-3.656-6.924-3.656v79.222h40.433
		c3.541,0,6.792-1.959,8.445-5.091C446.827,187.242,446.613,183.454,444.616,180.528z"/>
	<path style="fill:#488E53;" d="M474.173,262.872l-77.877-114.063v7.043v121.954h69.99c3.541,0,6.792-1.959,8.445-5.091
		C476.384,269.586,476.17,265.796,474.173,262.872z"/>
	<path style="fill:#488E53;" d="M502.45,395.309c3.541,0,6.792-1.959,8.445-5.091c1.653-3.131,1.439-6.92-0.558-9.845
		L396.297,213.342v181.967H502.45z"/>
</g>
<rect x="368.785" y="395.304" style="fill:#7E4F1F;" width="55.017" height="15.418"/>
<g>
	<polygon style="fill:#3A7545;" points="350.015,216.598 442.58,216.598 428.15,195.463 364.444,195.463 	"/>
	<polygon style="fill:#3A7545;" points="336.985,300.215 455.61,300.215 440.311,277.807 352.283,277.807 	"/>
</g>
<path style="fill:#A16125;" d="M9.428,499.308c-3.421,0-6.573-1.852-8.237-4.841s-1.58-6.644,0.221-9.551l182.088-294.052
	c1.72-2.776,4.753-4.465,8.019-4.464c3.265,0.001,6.298,1.692,8.016,4.47l181.823,294.052c1.799,2.909,1.881,6.562,0.217,9.549
	c-1.664,2.986-4.816,4.838-8.235,4.838H9.428V499.308z"/>
<path style="fill:#5E3C16;" d="M381.358,484.921L199.536,190.868c-1.612-2.608-4.465-4.47-8.016-4.47l-0.136,312.909H373.34
	c3.42,0,6.57-1.851,8.235-4.837C383.239,491.484,383.157,487.829,381.358,484.921z"/>
<polygon style="fill:#3E3E42;" points="119.217,499.308 191.436,349.969 263.55,499.308 "/>
<polygon style="fill:#1D1D1F;" points="191.556,499.308 263.551,499.308 191.436,349.969 "/>
<g>
</g>
<g>
</g>
<g>
</g>
<g>
</g>
<g>
</g>
<g>
</g>
<g>
</g>
<g>
</g>
<g>
</g>
<g>
</g>
<g>
</g>
<g>
</g>
<g>
</g>
<g>
</g>
<g>
</g>
</svg>
