<?xml version="1.0" encoding="iso-8859-1"?>
<!-- Generator: Adobe Illustrator 19.0.0, SVG Export Plug-In . SVG Version: 6.00 Build 0)  -->
<svg version="1.1" id="Layer_1" xmlns="http://www.w3.org/2000/svg" xmlns:xlink="http://www.w3.org/1999/xlink" x="0px" y="0px"
	 viewBox="0 0 512 512" style="enable-background:new 0 0 512 512;" xml:space="preserve">
<rect x="444.125" y="324.409" style="fill:#64666D;" width="34.205" height="102.614"/>
<rect x="478.33" y="341.511" style="fill:#D3D3D5;" width="25.653" height="68.409"/>
<rect x="33.67" y="324.409" style="fill:#64666D;" width="34.205" height="102.614"/>
<rect x="8.017" y="341.511" style="fill:#D3D3D5;" width="25.653" height="68.409"/>
<g>
	<rect x="33.67" y="358.614" style="fill:#7A7C82;" width="34.205" height="25.653"/>
	<rect x="444.125" y="358.614" style="fill:#7A7C82;" width="34.205" height="25.653"/>
</g>
<path style="fill:#909296;" d="M307.307,161.937h-25.653v-42.756c0-4.722,3.829-8.551,8.551-8.551h8.551
	c4.722,0,8.551,3.829,8.551,8.551V161.937z"/>
<rect x="136.284" y="161.937" style="fill:#D3D3D5;" width="239.432" height="342.046"/>
<rect x="187.591" y="161.937" style="fill:#45CAE0;" width="188.125" height="342.046"/>
<rect x="187.591" y="127.733" style="fill:#FFE88A;" width="51.307" height="34.205"/>
<rect x="187.591" y="127.733" style="fill:#F9D84E;" width="17.102" height="34.205"/>
<rect x="102.079" y="196.142" style="fill:#A7A7AB;" width="34.205" height="68.409"/>
<polygon style="fill:#909296;" points="119.182,247.449 119.182,196.142 102.079,196.142 102.079,264.551 136.284,264.551 
	136.284,247.449 "/>
<rect x="230.347" y="247.449" style="fill:#D3D3D5;" width="102.614" height="171.023"/>
<g>
	<polygon style="fill:#64666D;" points="278.447,418.472 332.96,418.472 332.96,363.958 	"/>
	<polygon style="fill:#64666D;" points="230.347,247.449 230.347,336.701 319.599,247.449 	"/>
	<polygon style="fill:#64666D;" points="230.347,400.301 230.347,418.472 256,418.472 332.96,341.511 332.96,297.687 	"/>
</g>
<g>
	<rect x="33.67" y="409.921" style="fill:#383A43;" width="34.205" height="17.102"/>
	<rect x="444.125" y="409.921" style="fill:#383A43;" width="34.205" height="17.102"/>
</g>
<path d="M503.983,333.495h-17.637v-9.086c0-4.427-3.588-8.017-8.017-8.017h-9.086V179.04C469.244,80.317,388.927,0,290.205,0
	h-68.409c-98.722,0-179.04,80.317-179.04,179.04v137.353H33.67c-4.428,0-8.017,3.589-8.017,8.017v9.086H8.017
	c-4.428,0-8.017,3.589-8.017,8.017v68.409c0,4.427,3.588,8.017,8.017,8.017h17.637v9.086c0,4.427,3.588,8.017,8.017,8.017h34.205
	c4.428,0,8.017-3.589,8.017-8.017V324.409c0-4.427-3.588-8.017-8.017-8.017h-9.086V179.04c0-89.882,73.124-163.006,163.006-163.006
	h68.409c89.882,0,163.006,73.124,163.006,163.006v137.353h-9.086c-4.428,0-8.017,3.589-8.017,8.017v102.614
	c0,4.427,3.588,8.017,8.017,8.017h26.188v26.188c0,5.01-4.076,9.086-9.086,9.086h-34.205c-5.01,0-9.086-4.076-9.086-9.086V144.835
	c0-13.851-11.268-25.119-25.119-25.119h-17.102c-5.01,0-9.086-4.076-9.086-9.086V84.977c0-13.851-11.268-25.119-25.119-25.119
	h-25.653c-13.851,0-25.119,11.268-25.119,25.119v17.637h-0.534c-9.136,0-16.568,7.432-16.568,16.568v34.739h-26.722v-26.188
	c0-4.427-3.588-8.017-8.017-8.017h-51.307c-4.428,0-8.017,3.589-8.017,8.017v26.188h-43.29c-4.428,0-8.017,3.589-8.017,8.017v26.188
	h-26.188c-4.428,0-8.017,3.589-8.017,8.017v68.409c0,4.427,3.588,8.017,8.017,8.017h26.188v231.415c0,4.427,3.588,8.017,8.017,8.017
	h171.023c4.428,0,8.017-3.589,8.017-8.017c0-4.427-3.588-8.017-8.017-8.017H195.608v-265.62c0-4.427-3.588-8.017-8.017-8.017
	s-8.017,3.589-8.017,8.017v265.62h-35.273V169.954h35.273v26.188c0,4.427,3.588,8.017,8.017,8.017s8.017-3.589,8.017-8.017v-26.188
	h172.092v326.013h-26.188c-4.428,0-8.017,3.589-8.017,8.017c0,4.427,3.588,8.017,8.017,8.017h34.205
	c4.428,0,8.017-3.589,8.017-8.017V161.937c0-4.427-3.588-8.017-8.017-8.017h-60.392v-34.739c0-6.228-3.458-11.659-8.551-14.489
	V84.977c0-5.01,4.076-9.086,9.086-9.086h25.653c5.01,0,9.086,4.076,9.086,9.086v25.653c0,13.851,11.268,25.119,25.119,25.119h17.102
	c5.01,0,9.086,4.076,9.086,9.086v316.392c0,13.851,11.268,25.119,25.119,25.119h34.205c13.851,0,25.119-11.268,25.119-25.119
	v-34.205v-9.086h17.637c4.428,0,8.017-3.589,8.017-8.017v-68.409C512,337.084,508.412,333.495,503.983,333.495z M16.033,401.904
	v-52.376h9.62v52.376H16.033z M59.858,419.006H41.687v-86.58h18.171V419.006z M110.096,256.534v-52.376h18.171v52.376H110.096z
	 M195.608,153.921v-18.171h35.273v18.171H195.608z M289.67,153.921v-34.739c0-0.295,0.241-0.534,0.534-0.534h8.551
	c0.294,0,0.534,0.239,0.534,0.534v34.739H289.67z M452.142,332.426h18.171v9.086v68.409v9.086h-18.171V332.426z M495.967,401.904
	h-9.62v-52.376h9.62V401.904z"/>
<path d="M119.182,316.392c-4.428,0-8.017,3.589-8.017,8.017v34.205c0,4.427,3.588,8.017,8.017,8.017
	c4.428,0,8.017-3.589,8.017-8.017v-34.205C127.198,319.982,123.61,316.392,119.182,316.392z"/>
<path d="M119.182,384.802c-4.428,0-8.017,3.589-8.017,8.017v34.205c0,4.427,3.588,8.017,8.017,8.017
	c4.428,0,8.017-3.589,8.017-8.017v-34.205C127.198,388.391,123.61,384.802,119.182,384.802z"/>
<path d="M230.347,221.261H332.96c4.428,0,8.017-3.589,8.017-8.017s-3.588-8.017-8.017-8.017H230.347
	c-4.428,0-8.017,3.589-8.017,8.017S225.918,221.261,230.347,221.261z"/>
<path d="M230.347,460.693H332.96c4.428,0,8.017-3.589,8.017-8.017c0-4.427-3.588-8.017-8.017-8.017H230.347
	c-4.428,0-8.017,3.589-8.017,8.017C222.33,457.104,225.918,460.693,230.347,460.693z"/>
<path d="M222.33,418.472c0,4.427,3.588,8.017,8.017,8.017H332.96c4.428,0,8.017-3.589,8.017-8.017V247.449
	c0-4.427-3.588-8.017-8.017-8.017H230.347c-4.428,0-8.017,3.589-8.017,8.017V418.472z M238.363,255.466h86.58v154.99h-86.58V255.466
	z"/>
<g>
</g>
<g>
</g>
<g>
</g>
<g>
</g>
<g>
</g>
<g>
</g>
<g>
</g>
<g>
</g>
<g>
</g>
<g>
</g>
<g>
</g>
<g>
</g>
<g>
</g>
<g>
</g>
<g>
</g>
</svg>
